<svg width="220" height="121" viewBox="0 0 220 121" fill="none" xmlns="http://www.w3.org/2000/svg">
<mask id="mask0_6_55" style="mask-type:luminance" maskUnits="userSpaceOnUse" x="0" y="0" width="220" height="121">
<path d="M220 0H0V120.851H220V0Z" fill="white"/>
</mask>
<g mask="url(#mask0_6_55)">
<path d="M217.391 78.9898C217.549 78.9654 217.708 78.9525 217.868 78.9511C218.069 78.9285 218.271 78.9865 218.429 79.1124C218.478 79.1588 218.517 79.2149 218.543 79.2771C218.569 79.3393 218.582 79.4062 218.581 79.4736C218.583 79.5844 218.549 79.6929 218.483 79.7825C218.418 79.8722 218.326 79.9381 218.22 79.9704C218.296 80.0058 218.361 80.0603 218.41 80.1288C218.459 80.1972 218.489 80.2771 218.497 80.3606C218.533 80.5418 218.584 80.7198 218.649 80.8929H218.391C218.333 80.7409 218.289 80.5845 218.258 80.4252C218.2 80.1574 218.116 80.0639 217.887 80.0542H217.649V80.8929H217.391V78.9898ZM217.649 79.8768H217.897C218.165 79.8768 218.345 79.7349 218.345 79.5059C218.345 79.2769 218.155 79.1543 217.887 79.1446C217.807 79.1437 217.727 79.1535 217.649 79.1737V79.8768Z" fill="#02213D"/>
<path d="M217.942 82.0091C217.416 82.0031 216.912 81.7965 216.533 81.4314C216.154 81.0663 215.929 80.5703 215.903 80.0448C215.889 79.7769 215.928 79.5089 216.02 79.2567C216.111 79.0045 216.253 78.7734 216.436 78.5771C216.616 78.3778 216.835 78.2162 217.079 78.1016C217.322 77.987 217.586 77.9217 217.855 77.9095C218.124 77.8969 218.393 77.9375 218.647 78.0289C218.9 78.1204 219.133 78.2609 219.332 78.4424C219.531 78.6239 219.693 78.8429 219.807 79.0868C219.922 79.3308 219.987 79.5949 220 79.8641C220.021 80.4083 219.826 80.9388 219.459 81.3404C219.091 81.742 218.579 81.9823 218.035 82.0091H217.939M217.939 78.1385H217.852C217.614 78.1479 217.382 78.205 217.167 78.3064C216.953 78.4078 216.761 78.5515 216.603 78.7287C216.281 79.0792 216.109 79.5428 216.126 80.019C216.134 80.2576 216.191 80.4922 216.292 80.7084C216.394 80.9246 216.538 81.118 216.716 81.2769C217.071 81.598 217.538 81.7661 218.017 81.745C218.495 81.7239 218.945 81.5151 219.271 81.164C219.431 80.9909 219.554 80.7876 219.635 80.5661C219.715 80.3445 219.75 80.1092 219.738 79.8738C219.718 79.41 219.519 78.9719 219.184 78.6506C218.849 78.3293 218.403 78.1493 217.939 78.1482" fill="#02213D"/>
<path d="M114.751 20.9143V82.7314H111.558C109.944 82.7963 108.335 82.5275 106.83 81.942C105.325 81.3564 103.957 80.4667 102.811 79.3284C101.665 78.1902 100.767 76.8278 100.172 75.3266C99.5769 73.8253 99.2979 72.2175 99.3524 70.6035V20.9143H114.751Z" fill="#00203E"/>
<path d="M114.961 7.68964C114.961 6.16836 114.51 4.68127 113.665 3.4165C112.819 2.15174 111.618 1.16614 110.212 0.584416C108.806 0.00269005 107.26 -0.149024 105.768 0.148467C104.276 0.445959 102.906 1.17929 101.831 2.25567C100.756 3.33206 100.024 4.70313 99.7286 6.19541C99.433 7.68769 99.5867 9.23413 100.17 10.6391C100.754 12.044 101.741 13.2443 103.007 14.0881C104.272 14.9318 105.76 15.3812 107.281 15.3793C108.291 15.3797 109.29 15.181 110.223 14.7946C111.156 14.4082 112.003 13.8417 112.716 13.1274C113.43 12.4131 113.995 11.5652 114.38 10.6321C114.766 9.69903 114.963 8.69912 114.961 7.68964Z" fill="#00203E"/>
<path d="M38.7934 54.2855H36.1259C28.2459 54.2855 15.5244 55.3822 15.5244 63.9847C15.5244 68.1004 18.5468 71.9807 24.8527 71.9807C32.9713 71.9807 38.7934 63.2525 38.7934 55.7338V54.2855ZM28.2459 19.2563C44.4929 19.2563 53.9372 28.2233 53.9372 43.8606V82.5314H39.7642V77.4416C39.7641 75.9801 39.847 74.5198 40.0126 73.0677H39.7642C38.0134 76.5029 35.3084 79.3597 31.9739 81.2953C28.6394 83.2309 24.8171 84.163 20.9659 83.9797C9.93138 83.9797 0 77.0803 0 64.7104C0 45.0702 26.5493 43.7445 36.6129 43.7445H38.6708V42.9059C38.6708 34.7776 33.5809 31.9939 26.788 31.9939C23.7643 31.8759 20.7461 32.3413 17.8984 33.3648H17.8694C17.3082 33.5648 16.763 33.8035 16.2566 34.0325C7.33806 37.1225 3.22552 28.2427 3.22552 28.2427L3.15456 28.1265C4.12222 27.0105 12.0086 19.2563 28.2459 19.2563Z" fill="#00203E"/>
<path d="M194.224 20.9143V70.6035C194.171 72.2169 194.45 73.8241 195.046 75.3246C195.641 76.8251 196.54 78.1866 197.685 79.3242C198.831 80.4618 200.198 81.3509 201.703 81.936C203.208 82.5212 204.817 82.7898 206.43 82.725H209.623V20.9143H194.224Z" fill="#00203E"/>
<path d="M209.832 7.68964C209.832 6.16836 209.381 4.68127 208.536 3.4165C207.69 2.15174 206.489 1.16614 205.083 0.584416C203.678 0.00269005 202.131 -0.149024 200.639 0.148467C199.147 0.445959 197.777 1.17929 196.702 2.25567C195.627 3.33206 194.895 4.70313 194.6 6.19541C194.304 7.68769 194.458 9.23413 195.041 10.6391C195.625 12.044 196.612 13.2443 197.878 14.0881C199.144 14.9318 200.631 15.3812 202.152 15.3793C203.162 15.3797 204.162 15.181 205.094 14.7946C206.027 14.4082 206.874 13.8417 207.587 13.1274C208.301 12.4131 208.866 11.5652 209.251 10.6321C209.637 9.69903 209.834 8.69912 209.832 7.68964Z" fill="#00203E"/>
<path d="M154.792 82.6733C158.34 82.6153 162.35 81.5283 165.675 72.9451L185.673 21.5239C185.673 21.5239 171.049 17.7016 166.73 29.9941C162.098 43.1639 155.441 61.8687 155.441 61.8687L139.848 21.5239H122.782L148.909 82.6153C148.909 82.6153 153.747 82.6927 154.799 82.6733" fill="#00203E"/>
<path d="M87.0279 69.049C83.025 69.049 80.7188 67.3524 80.7188 60.5497V41.0514H80.6833V20.4081C80.7443 18.8017 80.4731 17.2 79.8867 15.7032C79.3003 14.2064 78.4113 12.8468 77.2754 11.7093C76.1394 10.5718 74.781 9.68105 73.285 9.09266C71.789 8.50428 70.1876 8.23096 68.5811 8.28982H65.4072V57.8596H65.4266V62.8528C65.4266 80.5931 75.9837 82.7607 84.4862 82.7607C86.1053 82.7514 87.7219 82.6307 89.3245 82.3994V68.9232C89.3245 68.9232 88.2278 69.0458 87.0182 69.0458" fill="#00203E"/>
<path d="M22.1759 78.1867C14.5657 78.1992 7.15398 75.7595 1.03906 71.2292C2.59454 75.1837 5.35947 78.5458 8.9392 80.8356C12.5189 83.1253 16.7305 84.2257 20.9728 83.9797C24.7038 84.1257 28.4032 83.2439 31.6671 81.4305C34.931 79.6171 37.6339 76.9418 39.4808 73.6968C34.1914 76.6486 28.2333 78.1945 22.1759 78.1867Z" fill="#FFA500"/>
<path d="M39.9645 73.4225C39.8968 74.0676 39.7549 75.6223 39.7549 77.4448V82.5346H53.9472V58.6658C50.818 64.8346 45.9649 69.9622 39.9774 73.4258" fill="#FFA500"/>
<path d="M65.2197 92.2048H68.0324V105.242H84.6503V92.2048H87.4629V120.851H84.6503V107.765H68.0324V120.847H65.2197V92.2048Z" fill="#2987C1"/>
<path d="M95.7715 92.2048H111.899V94.7304H98.5777V105.165H109.48V107.691H98.5841V118.335H112.641V120.86H95.7715V92.2048Z" fill="#2987C1"/>
<path d="M133.172 111.719H121.641L118.383 120.847H115.409L125.921 92.2048H128.921L139.443 120.851H136.469L133.172 111.719ZM127.389 95.1852C127.389 95.1852 126.779 97.5495 126.292 98.8913L122.47 109.271H132.324L128.579 98.8849C128.092 97.5398 127.482 95.1788 127.482 95.1788L127.389 95.1852Z" fill="#2987C1"/>
<path d="M144.13 92.2048H146.952V118.332H160.235V120.857H144.14L144.13 92.2048Z" fill="#2987C1"/>
<path d="M168.856 94.7338H158.534V92.2083H181.919V94.7338H171.669V120.861H168.856V94.7338Z" fill="#2987C1"/>
<path d="M186.374 92.2048H189.187V105.242H205.805V92.2048H208.617V120.851H205.805V107.765H189.187V120.847H186.374V92.2048Z" fill="#2987C1"/>
</g>
</svg>
